<?xml version="1.0" standalone="no"?>
<!DOCTYPE svg PUBLIC "-//W3C//DTD SVG 20010904//EN"
 "http://www.w3.org/TR/2001/REC-SVG-20010904/DTD/svg10.dtd">
<svg version="1.0" xmlns="http://www.w3.org/2000/svg"
 width="1268.000000pt" height="1134.000000pt" viewBox="0 0 1268.000000 1134.000000"
 preserveAspectRatio="xMidYMid meet">

<g transform="translate(0.000000,1134.000000) scale(0.100000,-0.100000)"
fill="#000000" stroke="none">
<path d="M6060 8733 c-127 -164 -237 -302 -244 -307 -10 -7 -76 43 -236 173
-122 100 -227 180 -233 177 -7 -2 -179 -141 -382 -308 -204 -167 -380 -310
-392 -318 -16 -12 -4563 -8129 -4563 -8146 0 -2 2849 -4 6330 -4 3482 0 6330
2 6330 4 0 1 -1052 1884 -2337 4184 l-2338 4181 -295 206 c-165 116 -300 203
-308 200 -7 -3 -140 -93 -294 -201 -273 -192 -280 -196 -298 -178 -10 11 -125
156 -255 324 -130 168 -241 306 -245 308 -5 2 -112 -131 -240 -295z"/>
</g>
</svg>
